# xmcd
#
# Track frame offsets: 
#        150
#        41666
#        62838
#        86295
#        102600
#        123216
#        141821
#        163826
#        183226
#        211191
#        233164
#        262588
#        278434
#        303054
#        333561
#
# Disc length: 4794 seconds
#
# Revision: 1
# Processed by: cddbd v1.5.2PL0 Copyright (c) Steve Scherf et al.
# Submitted via: ExactAudioCopy v0.95a5
#
DISCID=c412b80f
DTITLE=Various Artist - Akella Presents - Modern Electric Blues - vol.3  CD1
DYEAR=2010
DGENRE=Blues
TTITLE0=STEVIE RAY VAUGHAN - Tin Pan Alley
TTITLE1=COLIN JAMES - Saviour
TTITLE2=TONY JOE WHITE - (You're Gonna Look) Good in Blues
TTITLE3=BIG HOUSE - Cold Outside
TTITLE4=PETER GREEN - I'm Ready For You
TTITLE5=BLUES COMPANY - What Love Can Do
TTITLE6=LUCKY PETERSON - Who Been Talking
TTITLE7=TINSLEY ELLIS - Sign of the Blues
TTITLE8=WILLIE EDWARDS - Helpless, Hopeless Feeling
TTITLE9=MICROWAVE DAVE - Road Runner
TTITLE10=HANK DAVISON BAND - Gamblers Roll
TTITLE11=OSCAR BENTON - Bensonhurst Blues
TTITLE12=TOM PETTY and The TRAVELIN' WILBURES - The Monkey Man
TTITLE13=JAN AKKERMAN - Shame On You
TTITLE14=RED ROCK ROOSTERS - Dutch Flowers
EXTD=
EXTT0=
EXTT1=
EXTT2=
EXTT3=
EXTT4=
EXTT5=
EXTT6=
EXTT7=
EXTT8=
EXTT9=
EXTT10=
EXTT11=
EXTT12=
EXTT13=
EXTT14=
PLAYORDER=
